<?xml version="1.0" standalone="no"?>
<!DOCTYPE svg PUBLIC "-//W3C//DTD SVG 20010904//EN"
 "http://www.w3.org/TR/2001/REC-SVG-20010904/DTD/svg10.dtd">
<svg version="1.0" xmlns="http://www.w3.org/2000/svg"
 width="500.000000pt" height="500.000000pt" viewBox="0 0 500.000000 500.000000"
 preserveAspectRatio="xMidYMid meet">

<g transform="translate(0.000000,500.000000) scale(0.100000,-0.100000)"
fill="#6366f1" stroke="none">
<path d="M2330 4990 c-471 -33 -910 -193 -1299 -473 -301 -217 -581 -544 -749
-874 -498 -979 -311 -2151 465 -2915 129 -127 174 -166 284 -245 269 -195 588
-342 894 -413 360 -84 790 -84 1150 0 425 99 832 323 1152 634 213 207 370
415 491 653 498 979 311 2151 -465 2915 -129 127 -174 166 -284 245 -269 195
-588 342 -894 413 -217 51 -523 75 -745 60z m1909 -1287 c6 -54 67 -474 135
-933 68 -459 120 -838 117 -842 -3 -3 -87 -18 -186 -33 -99 -15 -184 -28 -190
-28 -21 -4 -99 608 -156 1218 -7 72 -15 133 -18 137 -3 4 -71 -311 -150 -700
-80 -389 -146 -712 -148 -717 -4 -13 -264 -49 -274 -38 -6 8 -540 1001 -644
1200 -27 51 -50 92 -51 90 -1 -1 34 -186 77 -412 75 -388 164 -943 153 -954
-2 -3 -75 -15 -162 -27 -86 -12 -171 -24 -189 -28 -28 -7 -32 -5 -37 21 -6 29
-262 1776 -268 1828 l-3 29 255 38 c140 20 256 34 258 30 1 -4 90 -173 197
-377 107 -203 257 -488 332 -632 76 -145 141 -263 146 -263 4 0 7 9 7 20 0 23
267 1391 273 1396 5 5 445 71 483 73 l31 1 12 -97z m-2483 -777 c248 -76 424
-417 424 -824 0 -261 -112 -475 -295 -562 -92 -44 -207 -63 -294 -49 -68 10
-162 47 -193 76 -10 9 -20 14 -23 12 -2 -3 16 -148 42 -322 26 -174 44 -319
42 -322 -4 -3 -366 -63 -370 -61 -2 2 -285 1932 -283 1934 2 3 318 51 340 52
7 0 17 -30 24 -67 l13 -67 26 34 c74 99 170 157 296 180 67 12 188 5 251 -14z"/>
<path d="M1400 2605 c-56 -18 -115 -66 -140 -114 l-19 -38 42 -286 c42 -286
42 -287 75 -321 92 -97 305 -85 381 23 43 61 54 109 54 241 -1 373 -156 568
-393 495z"/>
</g>
</svg>
